<?xml version="1.0" encoding="UTF-8"?>
<svg width="52px" height="32px" viewBox="0 0 52 32" version="1.1" xmlns="http://www.w3.org/2000/svg" xmlns:xlink="http://www.w3.org/1999/xlink">
    <!-- Generator: Sketch 55.2 (78181) - https://sketchapp.com -->
    <title>Apple Pay</title>
    <desc>Created with Sketch.</desc>
    <defs>
        <polygon id="path-1" points="0.0185060241 31.7009346 0.0185060241 0.0119626168 51.0522602 0.0119626168 51.0522602 31.7009346"></polygon>
    </defs>
    <g id="Symbols" stroke="none" stroke-width="1" fill="none" fill-rule="evenodd">
        <g id="Icon/Card/Apple-Pay/Color" transform="translate(0.000000, -6.000000)">
            <g id="Apple-Pay" transform="translate(0.000000, 6.000000)">
                <g id="Group-3">
                    <g id="Fill-1-Clipped">
                        <mask id="mask-2" fill="white">
                            <use xlink:href="#path-1"></use>
                        </mask>
                        <g id="path-1"></g>
                        <path d="M46.480347,0.0104672897 L4.57191325,0.0104672897 C4.39733976,0.0104672897 4.22245783,0.0104672897 4.04819277,0.011364486 C3.90106988,0.0125607477 3.75425542,0.0140560748 3.60713253,0.0179439252 C3.28666988,0.026317757 2.96343133,0.0445607477 2.64697831,0.0998878505 C2.32559036,0.155813084 2.02640964,0.247327103 1.73463133,0.391476636 C1.44747952,0.532934579 1.18500241,0.718056075 0.95706988,0.938766355 C0.729445783,1.1597757 0.538525301,1.41398131 0.392636145,1.69271028 C0.243971084,1.97562617 0.149590361,2.26571963 0.0922216867,2.57764486 C0.034853012,2.88478505 0.0160385542,3.19790654 0.00740240964,3.50833645 C0.00339277108,3.65099065 0.00154216867,3.79334579 0.00061686747,3.93570093 C-4.93493976e-05,4.10497196 -4.93493976e-05,4.27424299 -4.93493976e-05,4.44381308 L-4.93493976e-05,27.2678879 C-4.93493976e-05,27.4374579 -4.93493976e-05,27.6064299 0.00061686747,27.776 C0.00154216867,27.9183551 0.00339277108,28.0610093 0.00740240964,28.2033645 C0.0160385542,28.5134953 0.034853012,28.8269159 0.0922216867,29.133757 C0.149590361,29.4456822 0.243971084,29.7357757 0.392636145,30.0189907 C0.538525301,30.2974206 0.729445783,30.5519252 0.95706988,30.7726355 C1.18500241,30.9936449 1.44747952,31.1787664 1.73463133,31.3199252 C2.02640964,31.4643738 2.32559036,31.5558879 2.64697831,31.6121121 C2.96343133,31.6668411 3.28666988,31.6853832 3.60713253,31.693757 C3.75425542,31.6970467 3.90106988,31.6991402 4.04819277,31.6997383 C4.22245783,31.7009346 4.39733976,31.7009346 4.57191325,31.7009346 L46.480347,31.7009346 C46.654612,31.7009346 46.829494,31.7009346 47.003759,31.6997383 C47.1505735,31.6991402 47.297388,31.6970467 47.4451277,31.693757 C47.7649735,31.6853832 48.088212,31.6668411 48.4052819,31.6121121 C48.7263614,31.5558879 49.0255422,31.4643738 49.3176289,31.3199252 C49.6047807,31.1787664 49.866641,30.9936449 50.0948819,30.7726355 C50.3221976,30.5519252 50.5131181,30.2974206 50.6593157,30.0189907 C50.8082892,29.7357757 50.9026699,29.4456822 50.9597301,29.133757 C51.0170988,28.8269159 51.0356048,28.5134953 51.044241,28.2033645 C51.0482506,28.0610093 51.0501012,27.9183551 51.0510265,27.776 C51.0522602,27.6064299 51.0522602,27.4374579 51.0522602,27.2678879 L51.0522602,4.44381308 C51.0522602,4.27424299 51.0522602,4.10497196 51.0510265,3.93570093 C51.0501012,3.79334579 51.0482506,3.65099065 51.044241,3.50833645 C51.0356048,3.19790654 51.0170988,2.88478505 50.9597301,2.57764486 C50.9026699,2.26571963 50.8082892,1.97562617 50.6593157,1.69271028 C50.5131181,1.41398131 50.3221976,1.1597757 50.0948819,0.938766355 C49.866641,0.718056075 49.6047807,0.532934579 49.3176289,0.391476636 C49.0255422,0.247327103 48.7263614,0.155813084 48.4052819,0.0998878505 C48.088212,0.0445607477 47.7649735,0.026317757 47.4451277,0.0179439252 C47.297388,0.0140560748 47.1505735,0.0125607477 47.003759,0.011364486 C46.829494,0.0104672897 46.654612,0.0104672897 46.480347,0.0104672897" id="Fill-1" fill="#1A1919" fill-rule="nonzero" mask="url(#mask-2)"></path>
                    </g>
                </g>
                <path d="M46.480347,1.06676636 L46.9960482,1.06766355 C47.1354602,1.06856075 47.2751807,1.07005607 47.4155181,1.07394393 C47.6597976,1.0802243 47.9457157,1.09308411 48.2122024,1.13943925 C48.4435277,1.17981308 48.637841,1.24142056 48.8241349,1.33323364 C49.0082699,1.42385047 49.1766747,1.5428785 49.3237976,1.68523364 C49.4715373,1.82878505 49.594294,1.99237383 49.6889831,2.17271028 C49.7833639,2.35214953 49.8462843,2.53936449 49.8879229,2.76545794 C49.9354217,3.02115888 49.9486843,3.29899065 49.9551614,3.53734579 C49.9591711,3.67162617 49.9610217,3.80620561 49.9616386,3.94407477 C49.9628723,4.11065421 49.9628723,4.27693458 49.9628723,4.44381308 L49.9628723,27.2678879 C49.9628723,27.4347664 49.9628723,27.6010467 49.9616386,27.7709159 C49.9610217,27.9054953 49.9591711,28.0400748 49.9551614,28.1749533 C49.9486843,28.4127103 49.9354217,28.6905421 49.887306,28.9489346 C49.8462843,29.1720374 49.7833639,29.3592523 49.6883663,29.5395888 C49.5939855,29.7196262 49.4715373,29.8829159 49.3244145,30.0255701 C49.1763663,30.1691215 49.0085783,30.2875514 48.8222843,30.3790654 C48.6372241,30.4705794 48.4435277,30.5321869 48.2143614,30.5719626 C47.9423229,30.6189159 47.6446843,30.6320748 47.420453,30.637757 C47.2794988,30.6410467 47.1391614,30.6428411 46.9951229,30.6434393 C46.8239422,30.6446355 46.6518361,30.6446355 46.480347,30.6446355 L4.57191325,30.6446355 C4.56975422,30.6446355 4.56759518,30.6446355 4.56512771,30.6446355 C4.39579759,30.6446355 4.2258506,30.6446355 4.05343614,30.6434393 C3.91279036,30.6428411 3.77245301,30.6410467 3.63674217,30.6380561 C3.40726747,30.6320748 3.10932048,30.6189159 2.8397494,30.5722617 C2.6084241,30.5321869 2.41472771,30.4705794 2.2272,30.3778692 C2.04275663,30.2872523 1.87496867,30.1688224 1.72692048,30.024972 C1.58010602,29.8829159 1.45796627,29.7199252 1.36358554,29.5395888 C1.26889639,29.3595514 1.20566747,29.1717383 1.16402892,28.9459439 C1.11622169,28.6878505 1.10295904,28.411514 1.09617349,28.1749533 C1.09247229,28.0397757 1.09093012,27.9042991 1.09000482,27.7700187 L1.08938795,27.3728598 L1.08938795,4.33914019 L1.09000482,3.9428785 C1.09093012,3.80740187 1.09247229,3.6722243 1.09617349,3.53704673 C1.10295904,3.30018692 1.11622169,3.0235514 1.16464578,2.76336449 C1.20566747,2.53996262 1.26889639,2.35185047 1.36389398,2.17091589 C1.45765783,1.99207477 1.58010602,1.82878505 1.72753735,1.68583178 C1.87466024,1.5428785 2.04337349,1.4244486 2.22874217,1.33293458 C2.41411084,1.2411215 2.6084241,1.17981308 2.8397494,1.13943925 C3.10623614,1.09308411 3.39215422,1.0802243 3.6370506,1.07394393 C3.77646265,1.07005607 3.91618313,1.06856075 4.05466988,1.06766355 L4.57191325,1.06676636 L46.480347,1.06676636" id="Fill-4" fill="#FFFFFE" fill-rule="nonzero"></path>
                <path d="M13.4193349,10.7080374 C13.8523759,10.1831776 14.1460048,9.47828037 14.068588,8.75813084 C13.4350651,8.78863551 12.6618217,9.16336449 12.2142843,9.68882243 C11.8123952,10.1386168 11.4567711,10.8728224 11.5493012,11.5627664 C12.2605494,11.6225794 12.9711807,11.218243 13.4193349,10.7080374" id="Fill-5" fill="#1A1919" fill-rule="nonzero"></path>
                <path d="M14.0602602,11.6976449 C13.0276241,11.6378318 12.1495133,12.2658692 11.6563277,12.2658692 C11.1628337,12.2658692 10.4074795,11.7275514 9.59043855,11.7422056 C8.52726747,11.7571589 7.54089639,12.3400374 7.00113735,13.2671402 C5.89139277,15.1219439 6.70843373,17.8730467 7.78764337,19.3833271 C8.31167229,20.1306916 8.94334458,20.9534206 9.7754988,20.9241121 C10.5616964,20.8942056 10.8701301,20.4303551 11.8256578,20.4303551 C12.7808771,20.4303551 13.0584675,20.9241121 13.8909301,20.9091589 C14.7539277,20.8942056 15.2936867,20.1614953 15.8177157,19.4132336 C16.418853,18.5614953 16.6649831,17.7390654 16.6807133,17.6939065 C16.6649831,17.6786542 15.0160964,17.0655701 15.0009831,15.2263178 C14.985253,13.6861308 16.2954795,12.9537196 16.3571663,12.9082617 C15.6172337,11.8471776 14.4612241,11.7275514 14.0602602,11.6976449" id="Fill-6" fill="#1A1919" fill-rule="nonzero"></path>
                <path d="M21.8164434,15.5370467 L23.8767807,15.5370467 C25.4402313,15.5370467 26.3300627,14.7208972 26.3300627,13.3060187 C26.3300627,11.8914393 25.4402313,11.0827664 23.8848,11.0827664 L21.8164434,11.0827664 L21.8164434,15.5370467 Z M24.3579373,9.61345794 C26.6027181,9.61345794 28.1661687,11.1138692 28.1661687,13.298243 C28.1661687,15.4903925 26.570641,16.9985794 24.3018024,16.9985794 L21.8164434,16.9985794 L21.8164434,20.8311028 L20.0207422,20.8311028 L20.0207422,9.61345794 L24.3579373,9.61345794 L24.3579373,9.61345794 Z" id="Fill-7" fill="#1A1919" fill-rule="nonzero"></path>
                <path d="M34.0631133,17.7839252 L34.0631133,17.1540935 L32.0669301,17.2785047 C30.9445398,17.348486 30.359441,17.7525234 30.359441,18.4601121 C30.359441,19.1440748 30.9685976,19.5872897 31.9225831,19.5872897 C33.1412048,19.5872897 34.0631133,18.8330467 34.0631133,17.7839252 Z M28.611547,18.5067664 C28.611547,17.0685607 29.7419566,16.2446355 31.8263518,16.1202243 L34.0631133,15.9880374 L34.0631133,15.3662804 C34.0631133,14.4565234 33.4459373,13.9591776 32.3476048,13.9591776 C31.4414265,13.9591776 30.7841542,14.4098692 30.6478265,15.1019065 L29.028241,15.1019065 C29.0766651,13.6481495 30.487441,12.5909533 32.3957205,12.5909533 C34.4480386,12.5909533 35.7869494,13.6325981 35.7869494,15.2496449 L35.7869494,20.8311028 L34.1272675,20.8311028 L34.1272675,19.4862056 L34.0871711,19.4862056 C33.6143422,20.3645607 32.5718361,20.9163364 31.4414265,20.9163364 C29.7740337,20.9163364 28.611547,19.9527477 28.611547,18.5067664 L28.611547,18.5067664 Z" id="Fill-8" fill="#1A1919" fill-rule="nonzero"></path>
                <path d="M37.3127711,23.8316262 L37.3127711,22.487028 C37.425041,22.5022804 37.697388,22.5178318 37.8417349,22.5178318 C38.6353349,22.5178318 39.0844145,22.1915514 39.3570699,21.3517757 L39.5174554,20.8544299 L36.4787663,12.6920374 L38.3546602,12.6920374 L40.471441,19.3151402 L40.5115373,19.3151402 L42.6280096,12.6920374 L44.4560964,12.6920374 L41.3051373,21.2665421 C40.5837108,23.2331963 39.7577253,23.8785794 38.0101398,23.8785794 C37.873812,23.8785794 37.4327518,23.863028 37.3127711,23.8316262" id="Fill-9" fill="#1A1919" fill-rule="nonzero"></path>
            </g>
        </g>
    </g>
</svg>