<?xml version="1.0" encoding="UTF-8"?>
<svg width="52px" height="32px" viewBox="0 0 52 32" version="1.1" xmlns="http://www.w3.org/2000/svg" xmlns:xlink="http://www.w3.org/1999/xlink">
    <!-- Generator: Sketch 55.2 (78181) - https://sketchapp.com -->
    <title>Mastercard</title>
    <desc>Created with Sketch.</desc>
    <g id="Symbols" stroke="none" stroke-width="1" fill="none" fill-rule="evenodd">
        <g id="Icon/Card/Mastercard/Color" transform="translate(0.000000, -6.000000)" fill-rule="nonzero">
            <g id="Mastercard" transform="translate(0.000000, 6.000000)">
                <rect id="Rectangle-1" fill="#000000" x="0" y="0" width="51.2" height="32" rx="1.70666667"></rect>
                <path d="M29.6283023,16 C29.6283023,22.7357397 24.1416533,28.1956123 17.3738666,28.1956123 C10.6060799,28.1956123 5.11999982,22.7357397 5.11999982,16 C5.11999982,9.26482656 10.6060799,3.80438776 17.3738666,3.80438776 C24.1416533,3.80438776 29.6283023,9.26482656 29.6283023,16" id="Fill-1" fill="#D9222A"></path>
                <path d="M33.8255645,3.80438776 C30.6594133,3.80438776 27.7742933,4.9998584 25.5994311,6.96135874 C25.1565511,7.3610757 24.7429689,7.79278132 24.3620977,8.25194619 L26.8379022,8.25194619 C27.1763911,8.66157113 27.4881422,9.09242741 27.7720178,9.54366594 L23.4279822,9.54366594 C23.1677155,9.95838641 22.9313422,10.3892427 22.7219911,10.8351026 L28.4777245,10.8351026 C28.6742755,11.2535032 28.8477867,11.6840764 28.9965511,12.1262562 L22.2031644,12.1262562 C22.0615111,12.5469214 21.9423289,12.9774947 21.8470399,13.4176929 L29.3523911,13.4176929 C29.5324445,14.2499646 29.6283023,15.113942 29.6283023,16 C29.6283023,17.3542817 29.4061511,18.6573249 28.9965511,19.8740269 L22.2031644,19.8740269 C22.3516444,20.3164898 22.5251555,20.7473461 22.7217066,21.1654636 L28.4777245,21.1654636 C28.2678045,21.6113235 28.032,22.0421799 27.7714489,22.4571834 L23.4279822,22.4571834 C23.7115733,22.9075727 24.0238933,23.3389952 24.3620977,23.7477708 L26.8373333,23.7477708 C26.4570311,24.207785 26.0431644,24.6400567 25.5997155,25.0394906 C27.7745778,27.0007078 30.6594133,28.1956123 33.8255645,28.1956123 C40.5933512,28.1956123 46.0800001,22.7357397 46.0800001,16 C46.0800001,9.26510967 40.5933512,3.80438776 33.8255645,3.80438776" id="Fill-2" fill="#EE9F2D"></path>
                <path d="M44.4467201,22.8988966 C44.4467201,22.62583 44.6678757,22.4039633 44.9412979,22.4039633 C45.2147201,22.4039633 45.4358757,22.62583 45.4358757,22.8988966 C45.4358757,23.1719633 45.2147201,23.39383 44.9412979,23.39383 C44.6678757,23.39383 44.4467201,23.1719633 44.4467201,22.8988966 L44.4467201,22.8988966 L44.4467201,22.8988966 Z M44.9412979,23.2750744 C45.1489424,23.2750744 45.3174757,23.1065411 45.3174757,22.8988966 C45.3174757,22.6908966 45.1489424,22.5230744 44.9412979,22.5230744 C44.7332979,22.5230744 44.5654757,22.6908966 44.5654757,22.8988966 C44.5654757,23.1065411 44.7332979,23.2750744 44.9412979,23.2750744 L44.9412979,23.2750744 L44.9412979,23.2750744 Z M44.8744535,23.1164966 L44.7731201,23.1164966 L44.7731201,22.6816521 L44.9565868,22.6816521 C44.9949868,22.6816521 45.0340979,22.6816521 45.0678757,22.7033411 C45.1030757,22.7271633 45.1229868,22.7691188 45.1229868,22.8124966 C45.1229868,22.8612077 45.0941868,22.9067188 45.0476091,22.9244966 L45.1276091,23.1164966 L45.0152535,23.1164966 L44.9487646,22.9444077 L44.8744535,22.9444077 L44.8744535,23.1164966 L44.8744535,23.1164966 Z M44.8744535,23.0249534 L44.9790026,23.0249534 C45.0180432,23.0249534 45.0590688,23.0292131 45.0941391,23.0045066 C45.1252392,22.978948 45.1411201,22.9312387 45.1411201,22.8852332 C45.1411201,22.8451913 45.1219306,22.7991858 45.0954626,22.7795909 C45.0623773,22.7531803 45.0101028,22.7591441 44.9750324,22.7591441 L44.8744535,22.7591441 L44.8744535,23.0249534 L44.8744535,23.0249534 Z" id="Fill-3" fill="#000000"></path>
                <path d="M14.5126399,17.335315 C14.3729777,17.3191791 14.3115377,17.3149328 14.2156799,17.3149328 C13.4616177,17.3149328 13.0798932,17.5722576 13.0798932,18.0803964 C13.0798932,18.3937722 13.2662043,18.5930644 13.5569065,18.5930644 C14.0987732,18.5930644 14.4893155,18.0795471 14.5126399,17.335315 L14.5126399,17.335315 L14.5126399,17.335315 Z M15.4800355,19.5770701 L14.3778132,19.5770701 L14.4031288,19.0556264 C14.0669155,19.4677991 13.6183465,19.6636943 13.0087821,19.6636943 C12.2877155,19.6636943 11.793351,19.1031848 11.793351,18.2893136 C11.793351,17.0646851 12.6532265,16.350177 14.1292088,16.350177 C14.2799643,16.350177 14.4733865,16.3637651 14.6713599,16.3889597 C14.7126043,16.2230715 14.7234132,16.152017 14.7234132,16.062845 C14.7234132,15.7293702 14.491591,15.6050955 13.8700799,15.6050955 C13.219271,15.5977353 12.6825243,15.7593773 12.4620799,15.8315641 C12.4760177,15.7480538 12.6463999,14.6997877 12.6463999,14.6997877 C13.3094399,14.5064402 13.746631,14.4336872 14.2387199,14.4336872 C15.3810488,14.4336872 15.9860621,14.9440906 15.9849243,15.9088465 C15.9871999,16.1673036 15.9442488,16.4863412 15.8771199,16.905591 C15.7616355,17.6345365 15.5138843,19.1963199 15.4800355,19.5770701 L15.4800355,19.5770701 L15.4800355,19.5770701 Z" id="Fill-4" fill="#000000"></path>
                <polyline id="Fill-5" fill="#000000" points="11.2366932 19.5770701 9.90634653 19.5770701 10.6683732 14.8215145 8.96682653 19.5770701 8.06030206 19.5770701 7.94823093 14.8486908 7.1472354 19.5770701 5.9019376 19.5770701 6.94215093 13.3907997 8.85503986 13.3907997 8.9710932 16.8535033 10.1378843 13.3907997 12.2655288 13.3907997 11.2366932 19.5770701"></polyline>
                <path d="M35.4696534,17.335315 C35.3305601,17.3191791 35.2688356,17.3149328 35.1732623,17.3149328 C34.4194845,17.3149328 34.0377601,17.5722576 34.0377601,18.0803964 C34.0377601,18.3937722 34.2237867,18.5930644 34.5144889,18.5930644 C35.0563556,18.5930644 35.4471823,18.0795471 35.4696534,17.335315 L35.4696534,17.335315 L35.4696534,17.335315 Z M36.4379023,19.5770701 L35.3356801,19.5770701 L35.3607112,19.0556264 C35.0244979,19.4677991 34.5756445,19.6636943 33.9666489,19.6636943 C33.2452978,19.6636943 32.7515023,19.1031848 32.7515023,18.2893136 C32.7515023,17.0646851 33.6108089,16.350177 35.0870756,16.350177 C35.2378312,16.350177 35.4309689,16.3637651 35.6286579,16.3889597 C35.6699023,16.2230715 35.6807112,16.152017 35.6807112,16.062845 C35.6807112,15.7293702 35.4491734,15.6050955 34.8276623,15.6050955 C34.1768534,15.5977353 33.6406756,15.7593773 33.4193778,15.8315641 C33.4333156,15.7480538 33.6042667,14.6997877 33.6042667,14.6997877 C34.2673067,14.5064402 34.7042134,14.4336872 35.1957334,14.4336872 C36.3386312,14.4336872 36.9436445,14.9440906 36.9425067,15.9088465 C36.9447823,16.1673036 36.9018312,16.4863412 36.8347023,16.905591 C36.7197867,17.6345365 36.4714667,19.1963199 36.4379023,19.5770701 L36.4379023,19.5770701 L36.4379023,19.5770701 Z" id="Fill-6" fill="#000000"></path>
                <path d="M21.3924977,19.500637 C21.0284089,19.6147205 20.7445333,19.6636943 20.4367644,19.6636943 C19.7566577,19.6636943 19.3854577,19.2747347 19.3854577,18.558528 C19.3757866,18.3363058 19.4833066,17.7514508 19.5677866,17.2175514 C19.6445866,16.7476292 20.1446399,13.7845719 20.1446399,13.7845719 L21.4670222,13.7845719 L21.3125689,14.5460722 L22.1112889,14.5460722 L21.9309511,15.755131 L21.1293866,15.755131 C20.9757866,16.7119604 20.7570489,17.9037509 20.7544889,18.0617127 C20.7544889,18.3210192 20.8935822,18.4342534 21.2098844,18.4342534 C21.3614933,18.4342534 21.4789689,18.4189668 21.5685689,18.386695 L21.3924977,19.500637" id="Fill-7" fill="#000000"></path>
                <path d="M25.4469689,19.4598727 C24.9927111,19.5980184 24.5543822,19.6648267 24.0898844,19.6637085 C22.6096355,19.6622789 21.8379377,18.8928521 21.8379377,17.4193914 C21.8379377,15.6996462 22.8195555,14.4336872 24.1521777,14.4336872 C25.2424533,14.4336872 25.9387733,15.1425336 25.9387733,16.2542109 C25.9387733,16.6230715 25.8909867,16.9831565 25.7757867,17.4915782 L23.1423999,17.4915782 C23.0533689,18.221373 23.5227022,18.525407 24.29184,18.525407 C24.7651555,18.525407 25.1921067,18.4283086 25.6668444,18.2086342 L25.4469689,19.4598727 L25.4469689,19.4598727 Z M24.7037155,16.4772824 C24.7111111,16.3725407 24.8439467,15.5793348 24.0884622,15.5793348 C23.6672,15.5793348 23.3659733,15.8989384 23.2433777,16.4772824 L24.7037155,16.4772824 L24.7037155,16.4772824 Z" id="Fill-8" fill="#000000"></path>
                <path d="M16.2779021,16.1364473 C16.2779021,16.7728238 16.5879466,17.2116066 17.2910933,17.5411182 C17.8298311,17.7930644 17.9131733,17.867799 17.9131733,18.0962491 C17.9131733,18.409908 17.6756621,18.5514508 17.1491555,18.5514508 C16.7523555,18.5514508 16.3831466,18.4897382 15.9573333,18.3530078 C15.9573333,18.3530078 15.7823999,19.4618543 15.7744355,19.5147913 C16.0767999,19.5804672 16.3464533,19.6413305 17.1588266,19.6636943 C18.5625599,19.6636943 19.2108088,19.1317764 19.2108088,17.9821657 C19.2108088,17.2908706 18.9394488,16.8852088 18.2729955,16.5803256 C17.7151999,16.3255485 17.6511999,16.2686483 17.6511999,16.0336872 C17.6511999,15.7616419 17.8722133,15.6229299 18.3022933,15.6229299 C18.5634133,15.6229299 18.9201066,15.6506724 19.2580266,15.6985138 L19.4474666,14.5316348 C19.1030044,14.4772824 18.5807644,14.4336872 18.2766933,14.4336872 C16.7884799,14.4336872 16.273351,15.2073603 16.2779021,16.1364473" id="Fill-9" fill="#000000"></path>
                <path d="M31.9169423,14.5658882 C32.2864356,14.5658882 32.6308978,14.6624204 33.1056356,14.9002123 L33.3232356,13.5575372 C33.1283911,13.4813871 32.4423111,13.0343949 31.8611911,13.0343949 C30.97088,13.0343949 30.21824,13.4740269 29.6888889,14.1995754 C28.9169067,13.9450814 28.5994667,14.459448 28.2103467,14.971833 L27.8647467,15.0519463 C27.8909155,14.8832272 27.9145245,14.7156405 27.90656,14.5460722 L26.6848711,14.5460722 C26.5179022,16.1030432 26.22208,17.6801133 25.9905422,19.2390659 L25.93024,19.5770701 L27.2611555,19.5770701 C27.4833067,18.1406936 27.6050489,17.2209484 27.6790045,16.5984431 L28.1801955,16.3210192 C28.2550045,16.0438783 28.4893867,15.950177 28.9595733,15.9615004 C28.8981333,16.2898797 28.8651378,16.6352442 28.8651378,16.9930644 C28.8651378,18.6389243 29.75744,19.6636943 31.1896178,19.6636943 C31.5585423,19.6636943 31.8751289,19.6152867 32.3652267,19.4830857 L32.5993245,18.0727531 C32.1584356,18.2887474 31.7966223,18.3903751 31.4689423,18.3903751 C30.6955378,18.3903751 30.2276267,17.8222223 30.2276267,16.8832272 C30.2276267,15.5210191 30.9236623,14.5658882 31.9169423,14.5658882" id="Fill-10" fill="#000000"></path>
                <polyline id="Fill-12" fill="#FFFFFF" points="11.6195554 19.209625 10.2889243 19.209625 11.0515199 14.4546355 9.3499732 19.209625 8.44316426 19.209625 8.3310932 14.4818118 7.5300976 19.209625 6.28479983 19.209625 7.3250132 13.0242038 9.23790206 13.0242038 9.29166206 16.8535033 10.5821865 13.0242038 12.648391 13.0242038 11.6195554 19.209625"></polyline>
                <path d="M43.180089,13.3907997 L42.8851201,15.1782024 C42.5213157,14.7017693 42.130489,14.356971 41.6145068,14.356971 C40.9432179,14.356971 40.3322312,14.8634112 39.9323023,15.6087757 C39.3753601,15.4938429 38.7993601,15.2987969 38.7993601,15.2987969 L38.7990757,15.3033263 C38.8440179,14.8866242 38.8619379,14.6324134 38.8579557,14.5460722 L37.6359823,14.5460722 C37.4695823,16.1030432 37.1737601,17.6801133 36.9425067,19.2390659 L36.8816356,19.5770701 L38.2122667,19.5770701 C38.3920357,18.4155697 38.5297067,17.451097 38.630969,16.6861996 C39.0855112,16.277424 39.3130667,15.9207361 39.7724445,15.9445153 C39.5690667,16.4339703 39.4498845,16.9978769 39.4498845,17.5762209 C39.4498845,18.8339703 40.0893157,19.6636943 41.0564268,19.6636943 C41.5439645,19.6636943 41.918009,19.4963907 42.2829512,19.1085634 L42.2206579,19.5762209 L43.4790401,19.5762209 L44.4922313,13.3907997 L43.180089,13.3907997 L43.180089,13.3907997 Z M41.5163735,18.4144374 C41.0635379,18.4144374 40.8348445,18.0809625 40.8348445,17.4227884 C40.8348445,16.4339703 41.2629335,15.7327672 41.8665245,15.7327672 C42.3236268,15.7327672 42.5710935,16.0795471 42.5710935,16.7184714 C42.5710935,17.715782 42.1361779,18.4144374 41.5163735,18.4144374 L41.5163735,18.4144374 L41.5163735,18.4144374 Z" id="Fill-11" fill="#000000"></path>
                <path d="M14.8952177,16.9687191 C14.7558399,16.9525832 14.6941155,16.9483369 14.5985421,16.9483369 C13.8444799,16.9483369 13.4630399,17.2056618 13.4630399,17.7138005 C13.4630399,18.0266101 13.649351,18.2264686 13.9394843,18.2264686 C14.4819199,18.2264686 14.8724621,17.7129512 14.8952177,16.9687191 L14.8952177,16.9687191 L14.8952177,16.9687191 Z M15.8631821,19.209625 L14.7609599,19.209625 L14.785991,18.6890305 C14.4500621,19.1003539 14.0009243,19.2970985 13.3919288,19.2970985 C12.6705777,19.2970985 12.1764977,18.7365888 12.1764977,17.9227177 C12.1764977,16.697523 13.0360888,15.9835811 14.5123555,15.9835811 C14.663111,15.9835811 14.8565332,15.9971692 15.0542221,16.0223638 C15.0954666,15.8564756 15.1062755,15.7854211 15.1062755,15.695683 C15.1062755,15.3622081 14.8747377,15.2384997 14.2532265,15.2384997 C13.6021332,15.2311395 13.065671,15.3927813 12.8449421,15.4641189 C12.8588799,15.3808917 13.0292621,14.333758 13.0292621,14.333758 C13.6920177,14.1395612 14.1297777,14.0668083 14.6212977,14.0668083 C15.763911,14.0668083 16.3692088,14.5774947 16.368071,15.5414013 C16.3700621,15.8009908 16.3268266,16.1197452 16.2599821,16.5384289 C16.1447821,17.2670914 15.8967466,18.8297241 15.8631821,19.209625 L15.8631821,19.209625 L15.8631821,19.209625 Z" id="Fill-13" fill="#FFFFFF"></path>
                <path d="M33.7063823,13.1906582 L33.4884978,14.5336164 C33.0140445,14.2961076 32.6692978,14.1992923 32.3000889,14.1992923 C31.3068089,14.1992923 30.6104889,15.1544232 30.6104889,16.5166313 C30.6104889,17.4556264 31.0786845,18.0234962 31.8518045,18.0234962 C32.1794845,18.0234962 32.5410134,17.9221515 32.9819023,17.7058741 L32.7483734,19.1156405 C32.2579911,19.2486908 31.9416889,19.2970985 31.57248,19.2970985 C30.1405867,19.2970985 29.248,18.2723284 29.248,16.6264686 C29.248,14.4150036 30.4807823,12.869356 32.2440534,12.869356 C32.8248889,12.869356 33.5112534,13.1145082 33.7063823,13.1906582" id="Fill-14" fill="#FFFFFF"></path>
                <path d="M35.8528001,16.9687191 C35.7134223,16.9525832 35.6519823,16.9483369 35.5561245,16.9483369 C34.8023467,16.9483369 34.4206223,17.2056618 34.4206223,17.7138005 C34.4206223,18.0266101 34.6069334,18.2264686 34.8973512,18.2264686 C35.4392179,18.2264686 35.8300445,17.7129512 35.8528001,16.9687191 L35.8528001,16.9687191 L35.8528001,16.9687191 Z M36.8207645,19.209625 L35.7182579,19.209625 L35.7435734,18.6890305 C35.4073601,19.1003539 34.9585067,19.2970985 34.3495111,19.2970985 C33.6284445,19.2970985 33.1340801,18.7365888 33.1340801,17.9227177 C33.1340801,16.697523 33.9939556,15.9835811 35.4696534,15.9835811 C35.6206934,15.9835811 35.8138312,15.9971692 36.0118045,16.0223638 C36.0527645,15.8564756 36.0638579,15.7854211 36.0638579,15.695683 C36.0638579,15.3622081 35.8323201,15.2384997 35.2108089,15.2384997 C34.5600001,15.2311395 34.0232534,15.3927813 33.8025245,15.4641189 C33.8164623,15.3808917 33.9871289,14.333758 33.9871289,14.333758 C34.6498845,14.1395612 35.0873601,14.0668083 35.5788801,14.0668083 C36.7217779,14.0668083 37.3267912,14.5774947 37.3253689,15.5414013 C37.3276445,15.8009908 37.2846934,16.1197452 37.2175645,16.5384289 C37.1026489,17.2670914 36.8540445,18.8297241 36.8207645,19.209625 L36.8207645,19.209625 L36.8207645,19.209625 Z" id="Fill-15" fill="#FFFFFF"></path>
                <path d="M21.7753599,19.1334749 C21.4109866,19.2475585 21.1271111,19.2970985 20.8196266,19.2970985 C20.1395199,19.2970985 19.7683199,18.9081387 19.7683199,18.1919321 C19.7589333,17.9691437 19.8664533,17.384855 19.9509333,16.8509555 C20.0274488,16.3804672 20.5275021,13.4176929 20.5275021,13.4176929 L21.8495999,13.4176929 L21.6954311,14.1794763 L22.3741155,14.1794763 L22.1934933,15.3879689 L21.5125333,15.3879689 C21.3589333,16.3453645 21.1396266,17.5363058 21.1373511,17.6945506 C21.1373511,17.9547063 21.2767289,18.0670914 21.5927466,18.0670914 C21.7443555,18.0670914 21.8615466,18.0523709 21.9514311,18.0200991 L21.7753599,19.1334749" id="Fill-16" fill="#FFFFFF"></path>
                <path d="M25.8298311,19.0932767 C25.3758577,19.2314226 24.93696,19.2979477 24.4727467,19.2971065 C22.9924977,19.295683 22.2207999,18.5262562 22.2207999,17.0527955 C22.2207999,15.3324841 23.2024177,14.0668083 24.53504,14.0668083 C25.6253155,14.0668083 26.3216355,14.7753715 26.3216355,15.887615 C26.3216355,16.2567587 26.2738489,16.6168436 26.1589333,17.1249824 L23.5255467,17.1249824 C23.4365155,17.8547771 23.9058489,18.1590941 24.6749867,18.1590941 C25.1480177,18.1590941 25.5752533,18.0617127 26.0497067,17.8414721 L25.8298311,19.0932767 L25.8298311,19.0932767 Z M25.0862933,16.1098372 C25.0942577,16.0053786 25.2268089,15.2118896 24.47104,15.2118896 C24.0500622,15.2118896 23.7488355,15.5323426 23.62624,16.1098372 L25.0862933,16.1098372 L25.0862933,16.1098372 Z" id="Fill-17" fill="#FFFFFF"></path>
                <path d="M16.6607643,15.7698514 C16.6607643,16.4062279 16.9708088,16.8444445 17.6739555,17.1745224 C18.2126933,17.4264686 18.2960355,17.5014863 18.2960355,17.7296533 C18.2960355,18.0433122 18.0582399,18.184855 17.5323021,18.184855 C17.1352177,18.184855 16.7660088,18.1231423 16.339911,17.986412 C16.339911,17.986412 16.1655466,19.0952584 16.1575821,19.1481954 C16.4593777,19.2138713 16.7293155,19.2738854 17.5416888,19.2970985 C18.9457066,19.2970985 19.5936711,18.7651805 19.5936711,17.6158528 C19.5936711,16.9242746 19.3225955,16.5186129 18.6558577,16.2137297 C18.0983466,15.9583864 18.0337777,15.9023355 18.0337777,15.6670913 C18.0337777,15.3953291 18.2553599,15.2554848 18.6851555,15.2554848 C18.9459911,15.2554848 19.3026844,15.2840764 19.6411733,15.3319179 L19.8303288,14.1647558 C19.4861511,14.1104034 18.9639111,14.0668083 18.6598399,14.0668083 C17.1713421,14.0668083 16.6564977,14.8399151 16.6607643,15.7698514" id="Fill-18" fill="#FFFFFF"></path>
                <path d="M43.8619023,19.209625 L42.6032357,19.209625 L42.6658135,18.7414013 C42.3008712,19.1297949 41.9268268,19.2970985 41.439289,19.2970985 C40.4721779,19.2970985 39.8330312,18.4673744 39.8330312,17.2096249 C39.8330312,15.5363057 40.8243201,14.12569 41.9976535,14.12569 C42.5136357,14.12569 42.9041779,14.3354565 43.2676979,14.8116066 L43.5629513,13.0242038 L44.8750935,13.0242038 L43.8619023,19.209625 L43.8619023,19.209625 Z M41.8995201,18.0472753 C42.5190401,18.0472753 42.9542401,17.34862 42.9542401,16.3518755 C42.9542401,15.7129512 42.706489,15.3661713 42.2493868,15.3661713 C41.6460801,15.3661713 41.2174223,16.0670913 41.2174223,17.0561925 C41.2174223,17.7143666 41.4466845,18.0472753 41.8995201,18.0472753 L41.8995201,18.0472753 L41.8995201,18.0472753 Z" id="Fill-19" fill="#FFFFFF"></path>
                <path d="M38.019129,14.1794763 C37.8524445,15.7364473 37.5566223,17.3135174 37.3253689,18.8716207 L37.2644979,19.209625 L38.595129,19.209625 C39.0710045,16.1336164 39.1862045,15.5329087 39.9323023,15.6082095 C40.0512001,14.9786271 40.2724979,14.4271762 40.4374757,14.1489031 C39.880249,14.0334041 39.5690667,14.3467799 39.1617423,14.942109 C39.1938845,14.6847842 39.2527645,14.4348195 39.2411023,14.1794763 L38.019129,14.1794763" id="Fill-20" fill="#FFFFFF"></path>
                <path d="M27.0677333,14.1794763 C26.9007645,15.7364473 26.6049422,17.3135174 26.3736889,18.8716207 L26.3131022,19.209625 L27.6443022,19.209625 C28.1196089,16.1336164 28.2345245,15.5329087 28.9803378,15.6082095 C29.0998045,14.9786271 29.3211023,14.4271762 29.4855111,14.1489031 C28.9288533,14.0334041 28.6173867,14.3467799 28.2103467,14.942109 C28.2424889,14.6847842 28.3008,14.4348195 28.2897067,14.1794763 L27.0677333,14.1794763" id="Fill-21" fill="#FFFFFF"></path>
                <path d="M44.4461513,18.916731 C44.4461513,18.6425976 44.6676624,18.4217976 44.940729,18.4217976 C45.2141513,18.4217976 45.4353068,18.6425976 45.4353068,18.916731 C45.4353068,19.1894421 45.2141513,19.4113088 44.940729,19.4113088 C44.6676624,19.4113088 44.4461513,19.1894421 44.4461513,18.916731 L44.4461513,18.916731 L44.4461513,18.916731 Z M44.940729,19.2925532 C45.148729,19.2925532 45.3165513,19.1240199 45.3165513,18.916731 C45.3165513,18.7090866 45.148729,18.5405532 44.940729,18.5405532 C44.7330846,18.5405532 44.5645513,18.7090866 44.5645513,18.916731 C44.5645513,19.1240199 44.7330846,19.2925532 44.940729,19.2925532 L44.940729,19.2925532 L44.940729,19.2925532 Z M44.8738846,19.1329087 L44.7725513,19.1329087 L44.7725513,18.699131 L44.9563734,18.699131 C44.9944179,18.699131 45.0338846,18.6998421 45.0669513,18.7208199 C45.1025068,18.7449976 45.1227734,18.7862421 45.1227734,18.8296199 C45.1227734,18.8786866 45.0939734,18.9245532 45.0470401,18.9419754 L45.1273957,19.1329087 L45.0146846,19.1329087 L44.9481957,18.961531 L44.8738846,18.961531 L44.8738846,19.1329087 L44.8738846,19.1329087 Z M44.8738846,19.0427639 L44.977772,19.0427639 C45.0168127,19.0427639 45.0591617,19.0461798 45.0935703,19.0222679 C45.1246704,18.9966478 45.1405513,18.9479698 45.1405513,18.9018537 C45.1405513,18.8634236 45.1220237,18.8173075 45.0948937,18.7942495 C45.0624703,18.7703374 45.0088723,18.7771693 44.9738018,18.7771693 L44.8738846,18.7771693 L44.8738846,19.0427639 L44.8738846,19.0427639 Z" id="Fill-22" fill="#FFFFFF"></path>
            </g>
        </g>
    </g>
</svg>