<?xml version="1.0" encoding="UTF-8"?>
<svg width="52px" height="32px" viewBox="0 0 52 32" version="1.1" xmlns="http://www.w3.org/2000/svg" xmlns:xlink="http://www.w3.org/1999/xlink">
    <!-- Generator: Sketch 55.2 (78181) - https://sketchapp.com -->
    <title>PayPal</title>
    <desc>Created with Sketch.</desc>
    <g id="Symbols" stroke="none" stroke-width="1" fill="none" fill-rule="evenodd">
        <g id="Icon/Card/PayPal/Color" transform="translate(0.000000, -6.000000)" fill-rule="nonzero">
            <g id="PayPal" transform="translate(0.000000, 6.000000)">
                <path d="M47.5897436,0 L3.61025641,0 C1.61956103,0 0,1.57592016 0,3.51297405 L0,28.4870259 C0,30.4240798 1.61956103,32 3.61025641,32 L47.5897436,32 C49.5803077,32 51.2,30.4240798 51.2,28.4870259 L51.2,3.51297405 C51.2,1.57592016 49.5803077,0 47.5897436,0 Z" id="Shape" fill="#FFFFFF"></path>
                <path d="M11.0525703,10.8488942 C10.5012513,10.4800958 9.78182564,10.2952495 8.89429333,10.2952495 L5.45824821,10.2952495 C5.18616615,10.2952495 5.03584821,10.4276567 5.00729436,10.6921517 L3.61143795,19.2180758 C3.59693128,19.3018124 3.61846154,19.3783952 3.67583179,19.448016 C3.73287385,19.5177645 3.80461949,19.5524471 3.89054359,19.5524471 L5.52264205,19.5524471 C5.80890256,19.5524471 5.9662441,19.4203593 5.99512615,19.155481 L6.38162051,16.8569741 C6.39573333,16.7455808 6.44608,16.65501 6.5320041,16.5852615 C6.61786256,16.5156407 6.72525128,16.4700998 6.85410462,16.4492136 C6.98295795,16.428519 7.10445949,16.4181078 7.2192,16.4181078 C7.33361231,16.4181078 7.46955487,16.4251337 7.62729026,16.438994 C7.78463179,16.4529182 7.88493128,16.4596886 7.92792615,16.4596886 C9.15908923,16.4596886 10.1254564,16.1221238 10.8270933,15.4462914 C11.5284021,14.7707146 11.8794503,13.8339002 11.8794503,12.6356567 C11.8794503,11.8138124 11.6036267,11.2182675 11.0525703,10.8488942 Z M9.28091897,13.4088942 C9.20910769,13.8965589 9.02321231,14.2168144 8.72257641,14.3701078 C8.42187487,14.5235928 7.99238564,14.5998563 7.43410872,14.5998563 L6.72538256,14.6208064 L7.09054359,12.3848303 C7.11903179,12.2317285 7.21204513,12.1550818 7.36964923,12.1550818 L7.77780513,12.1550818 C8.35019487,12.1550818 8.76563692,12.2353693 9.02334359,12.3953054 C9.28091897,12.5556248 9.36684308,12.8936367 9.28091897,13.4088942 Z" id="Shape" fill="#003087"></path>
                <path d="M47.3136574,10.2952495 L45.7246195,10.2952495 C45.5667528,10.2952495 45.4738051,10.3718962 45.4454482,10.5251257 L44.0494605,19.2180758 L44.0279303,19.2598483 C44.0279303,19.3298523 44.0566154,19.3957046 44.1139856,19.4584271 C44.1709621,19.521022 44.242839,19.5523832 44.3286318,19.5523832 L45.7461497,19.5523832 C46.0177723,19.5523832 46.1681559,19.4202954 46.1971692,19.1554172 L47.5930256,10.6085429 L47.5930256,10.5877844 C47.59296,10.3927824 47.4996185,10.2952495 47.3136574,10.2952495 Z" id="Shape" fill="#009CDE"></path>
                <path d="M28.1147077,13.6595289 C28.1147077,13.5900359 28.0858913,13.5237365 28.0289805,13.4611417 C27.9715446,13.398483 27.9070195,13.366994 27.8356677,13.366994 L26.182039,13.366994 C26.0242379,13.366994 25.8954503,13.436998 25.795479,13.5759202 L23.5191138,16.8359601 L22.5742769,13.7014291 C22.5024,13.4786427 22.3449928,13.366994 22.1017928,13.366994 L20.4909621,13.366994 C20.4192164,13.366994 20.3547569,13.3984192 20.2978462,13.4611417 C20.2404103,13.5237365 20.2119221,13.5900998 20.2119221,13.6595289 C20.2119221,13.6876327 20.3515405,14.0983952 20.6306462,14.8924551 C20.9097518,15.6866427 21.2104533,16.5434251 21.5326195,17.462994 C21.8547856,18.3823074 22.0228267,18.8701637 22.0372677,18.9255409 C20.8632123,20.4859401 20.2763159,21.3218363 20.2763159,21.4331018 C20.2763159,21.6143713 20.3693292,21.7048144 20.5554872,21.7048144 L22.2091159,21.7048144 C22.3665887,21.7048144 22.4953764,21.6353214 22.5956759,21.4959521 L28.0719097,13.8057964 C28.1003979,13.7780758 28.1147077,13.7295329 28.1147077,13.6595289 Z" id="Shape" fill="#003087"></path>
                <path d="M43.5125826,13.366994 L41.8803528,13.366994 C41.6798195,13.366994 41.5584492,13.5968703 41.51552,14.0566228 C41.1428759,13.4996567 40.4632287,13.2206627 39.4752,13.2206627 C38.4443733,13.2206627 37.5672779,13.5968703 36.8445046,14.3491577 C36.1214031,15.101509 35.7600492,15.9862675 35.7600492,17.0031138 C35.7600492,17.8252136 36.0069251,18.4799042 36.5008082,18.9673134 C36.9947569,19.4552335 37.6568779,19.6987146 38.4874995,19.6987146 C38.9025477,19.6987146 39.3248821,19.614978 39.7543713,19.4479521 C40.1839262,19.2807984 40.5200738,19.058012 40.7638646,18.7792735 C40.7638646,18.7932615 40.7492923,18.8558563 40.7208697,18.9672495 C40.6919877,19.0788982 40.6778749,19.1626347 40.6778749,19.218012 C40.6778749,19.4411816 40.7706913,19.5523194 40.9571118,19.5523194 L42.4390236,19.5523194 C42.7106462,19.5523194 42.8683815,19.4202315 42.9112451,19.1553533 L43.7918195,13.7013653 C43.8059323,13.6177565 43.7844677,13.5412375 43.72736,13.471489 C43.6699241,13.4019321 43.5985067,13.366994 43.5125826,13.366994 Z M40.7101046,17.4836886 C40.3450092,17.831984 39.9048205,18.0060359 39.3894072,18.0060359 C38.9740308,18.0060359 38.6378831,17.8947705 38.3800451,17.6717285 C38.1222728,17.4491976 37.9934195,17.1426747 37.9934195,16.7522874 C37.9934195,16.2371577 38.1723569,15.8015489 38.5303631,15.4462914 C38.8879097,15.0910339 39.3321026,14.9134052 39.8618913,14.9134052 C40.2623672,14.9134052 40.5952985,15.0283752 40.8604226,15.2581876 C41.1250872,15.4880639 41.2578133,15.8051257 41.2578133,16.2091178 C41.2577477,16.7105788 41.0751344,17.1355848 40.7101046,17.4836886 Z" id="Shape" fill="#009CDE"></path>
                <path d="M19.1166359,13.366994 L17.4845374,13.366994 C17.2838072,13.366994 17.1623713,13.5968703 17.1193764,14.0566228 C16.7328164,13.4996567 16.0527097,13.2206627 15.0791877,13.2206627 C14.048361,13.2206627 13.1713313,13.5968703 12.4484267,14.3491577 C11.7253251,15.101509 11.3639713,15.9862675 11.3639713,17.0031138 C11.3639713,17.8252136 11.6109785,18.4799042 12.1049272,18.9673134 C12.5988759,19.4552335 13.2608656,19.6987146 14.0913559,19.6987146 C14.4920287,19.6987146 14.9074708,19.614978 15.3368944,19.4479521 C15.7663836,19.2807984 16.1100144,19.058012 16.367721,18.7792735 C16.3102851,18.9464271 16.2817969,19.0927585 16.2817969,19.218012 C16.2817969,19.4411816 16.3748103,19.5523194 16.5609682,19.5523194 L18.0427487,19.5523194 C18.3145682,19.5523194 18.4722379,19.4202315 18.5152328,19.1553533 L19.3956759,13.7013653 C19.4097887,13.6177565 19.3883241,13.5412375 19.3312821,13.471489 C19.2739774,13.4019321 19.2024944,13.366994 19.1166359,13.366994 Z M16.3140923,17.4940359 C15.9489313,17.8357525 15.5013251,18.0060359 14.9719303,18.0060359 C14.5564882,18.0060359 14.2236226,17.8947705 13.9732677,17.6717285 C13.7225846,17.4491976 13.5974072,17.1426747 13.5974072,16.7522874 C13.5974072,16.2371577 13.776279,15.8015489 14.1343508,15.4462914 C14.4920287,15.0910339 14.9358933,14.9134052 15.4658133,14.9134052 C15.8664862,14.9134052 16.1993518,15.0283752 16.4644759,15.2581876 C16.7291405,15.4880639 16.8617354,15.8051257 16.8617354,16.2091178 C16.8617354,16.7245669 16.6791877,17.1530858 16.3140923,17.4940359 Z" id="Shape" fill="#003087"></path>
                <path d="M35.4485169,10.8488942 C34.8972636,10.4800958 34.1779692,10.2952495 33.2903056,10.2952495 L29.8757251,10.2952495 C29.5892021,10.2952495 29.4316636,10.4276567 29.403241,10.6921517 L28.0073846,19.218012 C27.9928779,19.3017485 28.0143426,19.3783313 28.0717785,19.4479521 C28.1286236,19.5177006 28.2005662,19.5523832 28.2864903,19.5523832 L30.0473764,19.5523832 C30.219159,19.5523832 30.3336369,19.4619401 30.3910072,19.2807984 L30.7776328,16.8569102 C30.7918113,16.745517 30.841961,16.6549461 30.9279508,16.5851976 C31.0138749,16.5155768 31.1211323,16.4700359 31.2501169,16.4491497 C31.3789046,16.4284551 31.5004062,16.4180439 31.6152123,16.4180439 C31.7296246,16.4180439 31.8655672,16.4250699 32.0231056,16.4389301 C32.1805785,16.4528543 32.2810749,16.4596248 32.3237415,16.4596248 C33.5551015,16.4596248 34.5213374,16.1220599 35.2229744,15.4462275 C35.92448,14.7706507 36.2752657,13.8338363 36.2752657,12.6355928 C36.2752657,11.8138124 35.9995733,11.2182675 35.4485169,10.8488942 Z M33.2473108,14.286499 C32.9322995,14.4954251 32.4598154,14.5998563 31.8299897,14.5998563 L31.1427282,14.6208064 L31.5078892,12.3848303 C31.5362462,12.2317285 31.6292595,12.1550818 31.7869949,12.1550818 L32.1734236,12.1550818 C32.4883036,12.1550818 32.7388554,12.169006 32.9252759,12.1967904 C33.1111056,12.2248942 33.2903056,12.3116966 33.4620882,12.4579641 C33.6340021,12.6042954 33.7197949,12.8167984 33.7197949,13.0954092 C33.7197949,13.680479 33.5621251,14.0774451 33.2473108,14.286499 Z" id="Shape" fill="#009CDE"></path>
            </g>
        </g>
    </g>
</svg>