<?xml version="1.0" encoding="UTF-8"?>
<svg width="52px" height="32px" viewBox="0 0 52 32" version="1.1" xmlns="http://www.w3.org/2000/svg" xmlns:xlink="http://www.w3.org/1999/xlink">
    <!-- Generator: Sketch 55.2 (78181) - https://sketchapp.com -->
    <title>Visa</title>
    <desc>Created with Sketch.</desc>
    <g id="Symbols" stroke="none" stroke-width="1" fill="none" fill-rule="evenodd">
        <g id="Icon/Card/Visa/Color" transform="translate(0.000000, -6.000000)" fill-rule="nonzero">
            <g id="Visa" transform="translate(0.000000, 6.000000)">
                <rect id="Rectangle-1" fill="#0E4595" x="0" y="0" width="51.2" height="32" rx="1.70666667"></rect>
                <polygon id="Shape" fill="#FFFFFF" points="18.991616 22.7076008 21.2690603 9.40742251 24.9117013 9.40742251 22.6326869 22.7076008"></polygon>
                <path d="M35.7927253,9.69426752 C35.0710101,9.42481529 33.9402411,9.1356603 32.5280085,9.1356603 C28.9287168,9.1356603 26.3932928,10.9395499 26.3717205,13.5248917 C26.3514453,15.4359915 28.1817429,16.5021146 29.5634603,17.13831 C30.9812907,17.7901996 31.4579968,18.2059958 31.4512384,18.7881104 C31.4422272,19.6796263 30.3189675,20.0869299 29.2719616,20.0869299 C27.8139904,20.0869299 27.0394368,19.8853503 25.8432,19.3887728 L25.3737984,19.1773418 L24.8625493,22.1547686 C25.7133568,22.5259958 27.2866304,22.8476943 28.9201835,22.8643397 C32.7491925,22.8643397 35.2349184,21.081104 35.2631808,18.3203397 C35.2769024,16.8073715 34.3064235,15.6559151 32.2049024,14.7067176 C30.9316608,14.091448 30.1519189,13.6808832 30.1601792,13.0578684 C30.1601792,12.5050361 30.8201813,11.9138854 32.2462037,11.9138854 C33.4373888,11.8954735 34.3002112,12.1539873 34.9725013,12.4234395 L35.2989525,12.5769172 L35.7927253,9.69426752" id="path13" fill="#FFFFFF"></path>
                <path d="M45.1662165,9.40742251 L42.3515136,9.40742251 C41.4795435,9.40742251 40.8270507,9.64426327 40.4440747,10.5103694 L35.0342827,22.6991083 L38.8593323,22.6991083 C38.8593323,22.6991083 39.4847915,21.0602463 39.62624,20.7004331 C40.0442368,20.7004331 43.7600597,20.7061401 44.2913109,20.7061401 C44.4002645,21.1717367 44.7344981,22.6991083 44.7344981,22.6991083 L48.1145173,22.6991083 L45.1662165,9.40742251 L45.1662165,9.40742251 Z M40.700416,17.9955839 C41.0016768,17.2292824 42.1516971,14.277673 42.1516971,14.277673 C42.1301931,14.3130701 42.4507051,13.5076348 42.6346837,13.0082718 L42.8809216,14.1549724 C42.8809216,14.1549724 43.5784021,17.3297665 43.7241515,17.9955159 L40.700416,17.9955159 L40.700416,17.9955839 L40.700416,17.9955839 Z" id="Path" fill="#FFFFFF"></path>
                <path d="M15.8994773,9.40742251 L12.3332267,18.4771465 L11.9532544,16.6339873 C11.2893611,14.5092144 9.22088107,12.2072527 6.908416,11.0547771 L10.1693099,22.6864034 L14.0233045,22.6819873 L19.7579776,9.40742251 L15.8994773,9.40742251" id="path16" fill="#FFFFFF"></path>
                <path d="M9.00570453,9.40742251 L3.13197227,9.40742251 L3.08548267,9.68414437 C7.65518507,10.7850531 10.6789205,13.4455372 11.9340715,16.6422081 L10.6568704,10.530276 C10.4363691,9.68808493 9.79684693,9.43677282 9.00570453,9.40742251" id="path18" fill="#F2AE14"></path>
            </g>
        </g>
    </g>
</svg>